{
    "asset" : {
        "generator" : "Khronos glTF Blender I/O v1.1.45",
        "version" : "2.0"
    },
    "scene" : 0,
    "scenes" : [
        {
            "extras" : {
                "glTF2ExportSettings" : {
                    "export_apply" : 1,
                    "export_extras" : 1,
                    "export_format" : "GLTF_SEPARATE",
                    "export_tangents" : 1
                }
            },
            "name" : "Scene",
            "nodes" : [
                0
            ]
        }
    ],
    "nodes" : [
        {
            "mesh" : 0,
            "name" : "low_poly",
            "rotation" : [
                0.7071068286895752,
                0,
                0,
                0.7071067094802856
            ]
        }
    ],
    "materials" : [
        {
            "doubleSided" : true,
            "emissiveFactor" : [
                1,
                1,
                1
            ],
            "emissiveTexture" : {
                "index" : 0,
                "texCoord" : 0
            },
            "name" : "Material",
            "normalTexture" : {
                "index" : 1,
                "texCoord" : 0
            },
            "pbrMetallicRoughness" : {
                "baseColorTexture" : {
                    "index" : 2,
                    "texCoord" : 0
                },
                "metallicRoughnessTexture" : {
                    "index" : 3,
                    "texCoord" : 0
                }
            }
        }
    ],
    "meshes" : [
        {
            "name" : "low_poly",
            "primitives" : [
                {
                    "attributes" : {
                        "POSITION" : 0,
                        "NORMAL" : 1,
                        "TANGENT" : 2,
                        "TEXCOORD_0" : 3
                    },
                    "indices" : 4,
                    "material" : 0
                }
            ]
        }
    ],
    "textures" : [
        {
            "source" : 0
        },
        {
            "source" : 1
        },
        {
            "source" : 2
        },
        {
            "source" : 3
        }
    ],
    "images" : [
        {
            "mimeType" : "image/jpeg",
            "name" : "asteroid1_emissive_blue",
            "uri" : "asteroid1_emissive_blue.png"
        },
        {
            "mimeType" : "image/jpeg",
            "name" : "asteroid1_normal",
            "uri" : "asteroid1_normal.png"
        },
        {
            "mimeType" : "image/jpeg",
            "name" : "asteroid1_diffuse",
            "uri" : "asteroid1_diffuse.png"
        },
        {
            "mimeType" : "image/png",
            "name" : "asteroid1_orm",
            "uri" : "asteroid1_orm.png"
        }
    ],
    "accessors" : [
        {
            "bufferView" : 0,
            "componentType" : 5126,
            "count" : 147,
            "max" : [
                1.0110379457473755,
                0.7907909750938416,
                0.7033889889717102
            ],
            "min" : [
                -0.8974180221557617,
                -0.9869570136070251,
                -0.8052290081977844
            ],
            "type" : "VEC3"
        },
        {
            "bufferView" : 1,
            "componentType" : 5126,
            "count" : 147,
            "type" : "VEC3"
        },
        {
            "bufferView" : 2,
            "componentType" : 5126,
            "count" : 147,
            "type" : "VEC4"
        },
        {
            "bufferView" : 3,
            "componentType" : 5126,
            "count" : 147,
            "type" : "VEC2"
        },
        {
            "bufferView" : 4,
            "componentType" : 5123,
            "count" : 750,
            "type" : "SCALAR"
        }
    ],
    "bufferViews" : [
        {
            "buffer" : 0,
            "byteLength" : 1764,
            "byteOffset" : 0
        },
        {
            "buffer" : 0,
            "byteLength" : 1764,
            "byteOffset" : 1764
        },
        {
            "buffer" : 0,
            "byteLength" : 2352,
            "byteOffset" : 3528
        },
        {
            "buffer" : 0,
            "byteLength" : 1176,
            "byteOffset" : 5880
        },
        {
            "buffer" : 0,
            "byteLength" : 1500,
            "byteOffset" : 7056
        }
    ],
    "buffers" : [
        {
            "byteLength" : 8556,
            "uri" : "asteroid1_blue.bin"
        }
    ]
}
